<?xml version="1.0" standalone="no"?>
<!DOCTYPE svg PUBLIC "-//W3C//DTD SVG 20010904//EN"
 "http://www.w3.org/TR/2001/REC-SVG-20010904/DTD/svg10.dtd">
<svg version="1.0" xmlns="http://www.w3.org/2000/svg"
 width="500.000000pt" height="500.000000pt" viewBox="0 0 500.000000 500.000000"
 preserveAspectRatio="xMidYMid meet">

<g transform="translate(0.000000,500.000000) scale(0.100000,-0.100000)"
fill="#000000" stroke="none">
<path d="M2340 4379 c-386 -44 -759 -217 -1036 -481 -95 -92 -204 -218 -204
-238 0 -4 -34 -68 -75 -143 -127 -229 -201 -443 -235 -680 -24 -162 -26 -382
-5 -539 17 -122 58 -288 82 -328 l14 -25 -6 30 c-52 242 -70 424 -61 636 13
345 93 623 249 873 47 77 54 93 46 115 -8 23 -4 33 28 71 74 87 267 272 349
333 173 130 402 238 609 287 184 44 275 53 494 48 215 -5 367 -30 543 -88 94
-32 274 -118 324 -156 17 -13 34 -24 38 -24 33 0 267 -199 376 -321 59 -65 82
-86 86 -74 9 23 -92 142 -214 251 -193 172 -401 294 -621 365 -269 85 -536
116 -781 88z"/>
<path d="M2460 4193 c-201 -14 -357 -50 -540 -125 -251 -104 -526 -305 -683
-502 -97 -120 -208 -329 -262 -491 -28 -86 -61 -284 -67 -405 l-3 -75 56 -3
56 -3 7 100 c33 509 303 949 726 1183 153 86 264 131 408 167 80 21 288 45
303 35 5 -3 9 -58 9 -123 l0 -119 -82 -12 c-258 -37 -487 -133 -640 -266 -145
-126 -171 -145 -186 -139 -13 5 -13 3 -1 -12 7 -10 9 -15 5 -11 -5 4 -16 2
-25 -5 -14 -11 -14 -10 -2 6 7 9 10 17 6 17 -11 0 55 82 118 143 70 70 189
159 297 224 44 26 77 49 75 51 -2 2 -48 -18 -102 -45 -122 -60 -274 -172 -333
-247 -25 -31 -55 -69 -67 -85 -36 -46 -163 -290 -190 -366 -47 -130 -84 -289
-95 -409 -29 -305 46 -532 289 -875 57 -81 143 -181 155 -181 6 0 20 7 30 16
17 16 21 15 75 -23 80 -55 276 -148 361 -172 39 -11 115 -25 169 -31 148 -17
143 -15 143 -57 l0 -36 -97 6 c-55 3 -138 16 -188 30 -87 23 -112 33 -295 111
-89 38 -105 42 -95 26 3 -5 1 -10 -5 -10 -7 0 -10 -16 -6 -47 2 -27 5 -48 6
-48 1 0 3 -7 5 -17 4 -22 70 -83 124 -115 44 -26 46 -26 135 -14 104 13 143
15 204 13 36 -2 49 -8 70 -34 15 -18 54 -60 86 -95 l60 -63 7 -93 c5 -50 11
-145 15 -210 5 -80 11 -117 19 -117 12 0 25 170 25 341 0 85 0 85 36 120 19
18 51 55 70 81 31 41 40 48 82 53 26 4 61 9 77 12 27 5 28 7 10 14 -19 7 -19
8 3 8 12 1 22 6 22 11 0 6 -10 10 -22 11 -22 0 -22 1 -3 9 11 5 14 9 7 9 -7 1
-10 6 -6 12 8 13 -16 30 -29 22 -5 -3 -26 -7 -46 -8 -20 -1 -71 -5 -114 -10
l-78 -8 3 79 3 78 97 17 c146 26 342 96 363 129 4 6 55 47 113 91 110 83 229
193 308 285 107 125 191 327 201 482 3 45 9 82 12 82 4 0 22 -11 41 -23 37
-25 110 -52 173 -63 l37 -6 0 -60 c0 -52 2 -59 15 -48 8 6 18 9 22 7 5 -3 7
12 5 33 l-4 37 52 -10 c46 -9 51 -12 46 -31 -3 -12 -6 -60 -6 -107 0 -75 -2
-87 -18 -91 -13 -4 -25 -29 -41 -84 -54 -186 -175 -426 -281 -562 -74 -95
-287 -298 -368 -353 -173 -116 -430 -217 -635 -249 l-78 -13 32 -33 c18 -19
42 -34 53 -34 38 0 320 78 396 110 342 141 621 379 815 696 27 43 59 91 71
106 28 35 80 166 111 283 17 64 26 138 33 254 5 91 7 167 4 170 -3 3 -39 15
-82 26 l-76 20 -2 45 c-12 229 -79 490 -163 643 -63 114 -74 121 -42 27 65
-189 115 -443 123 -625 2 -58 0 -69 -12 -67 -8 2 -49 12 -90 22 -41 11 -87 22
-101 25 -27 5 -27 6 -33 117 -27 446 -215 763 -574 968 -141 80 -245 111 -467
138 l-60 7 0 60 c-1 254 -5 305 -22 303 -10 -1 -38 -3 -63 -5z m46 -633 c-68
-141 -91 -201 -126 -328 -6 -24 -13 -42 -15 -40 -6 6 42 188 69 258 13 36 44
106 69 157 24 50 50 106 57 125 13 32 14 32 17 8 3 -17 -22 -79 -71 -180z
m-141 154 c-16 -13 -53 -40 -82 -60 -74 -49 -313 -316 -313 -349 0 -3 -17 -32
-37 -63 -40 -62 -133 -258 -133 -282 -1 -12 -3 -11 -14 3 -13 17 -14 17 -20 0
-4 -10 -1 -22 7 -28 13 -9 13 -20 -1 -80 -9 -42 -23 -77 -35 -87 -19 -18 -19
-18 4 -27 l24 -9 -25 -5 c-86 -19 -235 -45 -238 -42 -5 5 13 85 46 200 29 100
118 275 173 339 20 22 44 56 53 73 25 49 76 103 96 103 10 0 27 -11 38 -25 11
-14 27 -25 36 -25 26 0 18 36 -14 63 l-29 25 57 49 c89 77 170 129 304 193 68
32 125 59 128 59 3 0 -8 -11 -25 -25z m538 -10 c61 -20 132 -47 157 -59 124
-64 279 -223 352 -362 49 -94 101 -232 112 -298 5 -33 1 -28 -22 30 -97 234
-186 368 -337 506 -99 90 -168 130 -335 193 -97 37 -55 31 73 -10z m-516 -37
c-226 -179 -340 -328 -445 -582 -41 -100 -72 -205 -98 -332 -2 -13 -9 -23 -14
-23 -32 0 22 211 97 382 95 217 243 415 388 520 77 55 130 81 72 35z m352 -12
c41 -22 102 -70 161 -126 l95 -90 -102 83 c-57 46 -126 97 -155 115 -78 48
-84 52 -74 52 4 1 38 -15 75 -34z m-686 -1 c4 -4 -30 -29 -75 -57 -231 -142
-458 -453 -534 -732 -25 -91 -28 -116 -28 -275 -1 -165 1 -182 31 -300 17 -69
45 -163 62 -210 35 -93 40 -131 17 -107 -33 33 -95 209 -125 358 -57 278 -27
506 100 766 72 147 149 257 260 370 122 125 263 215 292 187z m417 -10 c0 -3
-17 -46 -39 -97 -48 -115 -84 -219 -110 -322 -23 -94 -51 -267 -51 -319 0 -20
-4 -36 -8 -36 -12 0 -267 86 -281 94 -17 11 -13 37 15 112 53 144 173 322 292
436 105 100 182 156 182 132z m453 -35 c34 -17 112 -68 172 -114 105 -80 166
-144 258 -272 72 -99 149 -298 163 -423 5 -49 11 -64 25 -67 16 -5 36 -40 27
-47 -1 -2 -48 13 -103 34 l-100 38 -6 48 c-16 125 -106 345 -198 483 -68 104
-200 253 -269 306 -29 21 -52 40 -52 42 0 9 27 0 83 -28z m-230 -21 c138 -72
271 -183 360 -300 93 -123 146 -231 187 -376 16 -59 30 -110 30 -113 0 -4 -43
-6 -95 -5 -70 1 -98 5 -104 15 -5 8 -16 11 -26 8 -10 -4 -14 -3 -9 4 4 7 0 9
-12 6 -11 -3 -68 -7 -129 -9 l-110 -3 -8 93 c-5 52 -6 100 -4 107 3 6 23 15
44 19 21 3 64 19 96 35 l59 30 13 -32 c7 -18 16 -48 20 -67 4 -19 13 -46 21
-60 l13 -25 1 27 c0 15 -7 48 -16 73 -8 26 -16 65 -16 88 0 22 -6 47 -13 54
-15 15 -29 18 -21 4 3 -5 -13 -20 -36 -34 -45 -26 -166 -73 -172 -66 -1 2 -15
73 -29 156 -37 208 -98 395 -122 372 -3 -4 8 -51 24 -105 39 -126 81 -325 81
-386 l0 -48 -37 -1 c-46 -2 -61 -2 -182 1 l-93 3 6 51 c17 143 157 526 192
526 3 0 42 -19 87 -42z m-105 -573 l137 -3 7 -43 c3 -24 7 -68 7 -96 l1 -53
-176 0 -177 0 5 94 c6 104 11 120 39 111 11 -4 82 -8 157 -10z m-325 -230 c2
-17 -2 -40 -10 -52 -13 -19 -12 -23 8 -42 29 -26 19 -37 -23 -25 -20 6 -41 22
-53 41 l-20 32 -127 1 c-73 0 -128 4 -128 9 0 15 30 152 34 160 3 4 74 -16
159 -44 151 -49 155 -51 160 -80z m647 -35 c41 -5 131 -14 200 -20 144 -11
200 -24 200 -46 0 -13 -10 -14 -62 -7 -85 11 -606 7 -743 -6 -60 -5 -113 -6
-118 -2 -7 7 34 49 51 52 4 1 17 5 30 10 13 5 50 9 83 9 32 0 59 4 59 9 0 19
153 20 300 1z m-500 0 c-8 -5 -24 -9 -35 -9 -16 1 -16 2 5 9 35 11 48 11 30 0z
m1060 -94 c94 -34 120 -48 120 -62 0 -8 -31 -1 -97 22 -108 39 -113 41 -113
55 0 14 20 11 90 -15z m-1466 -1 c-1 -15 -110 -32 -289 -44 -88 -6 -178 -14
-200 -17 -70 -11 -27 14 62 36 117 30 429 48 427 25z m712 -49 c7 -19 -22 -86
-38 -86 -7 1 -40 7 -73 15 -81 20 -169 20 -185 0 -10 -12 -11 -46 -6 -142 3
-70 8 -128 10 -130 2 -2 17 3 34 10 21 9 40 30 59 65 15 29 40 64 54 80 15 15
30 42 34 60 3 17 11 32 17 32 6 0 40 -16 75 -35 59 -32 97 -46 79 -27 -4 4
-13 7 -19 7 -6 0 -15 11 -20 25 -7 19 -3 39 16 83 l26 57 120 0 121 0 0 -37
c0 -21 -12 -69 -26 -108 -14 -38 -28 -82 -31 -97 -3 -16 -10 -28 -17 -28 -6 0
-18 -4 -26 -10 -12 -7 -12 -12 5 -29 21 -25 15 -37 -12 -23 -11 6 -38 8 -60 5
-40 -5 -41 -6 -36 -37 3 -22 -1 -39 -15 -56 -19 -24 -19 -24 0 -69 11 -25 25
-72 33 -104 13 -54 12 -62 -12 -132 -28 -85 -22 -81 -148 -89 -86 -5 -111 -9
-120 -18 -3 -3 11 -41 32 -84 40 -86 43 -96 28 -101 -11 -3 -79 104 -113 179
-35 77 -80 241 -96 350 -9 57 -19 185 -22 285 l-7 182 24 5 c13 4 83 7 154 9
72 1 136 4 143 5 7 1 15 -4 18 -12z m507 8 l77 -7 0 -42 c0 -99 -66 -390 -113
-495 -29 -63 -81 -142 -145 -218 -40 -47 -158 -139 -220 -171 -22 -12 -23 -11
-17 11 4 12 22 41 40 63 31 39 82 127 136 235 27 54 64 176 89 290 9 42 21
236 20 333 0 9 34 9 133 1z m-953 -215 c0 -213 -4 -227 -42 -143 -14 34 -20
77 -25 194 l-6 150 36 0 37 0 0 -201z m1217 155 l75 -36 -7 -46 c-14 -91 -57
-217 -111 -323 -44 -86 -73 -127 -147 -207 -51 -54 -105 -110 -122 -124 -60
-50 -166 -128 -209 -153 -44 -26 -167 -77 -172 -72 -2 1 31 23 73 47 95 56
172 116 284 225 90 86 125 142 170 273 21 61 54 249 65 375 3 42 11 77 17 77
5 0 43 -16 84 -36z m-1394 -46 c9 -40 35 -122 58 -183 32 -85 52 -121 88 -161
43 -48 47 -57 70 -163 13 -61 20 -115 16 -119 -17 -17 -102 -2 -158 27 -124
66 -131 22 -10 -66 38 -27 86 -59 109 -72 22 -13 41 -29 41 -37 0 -19 -24 -11
-99 33 -37 21 -65 32 -77 28 -39 -12 -111 93 -207 299 -57 122 -99 274 -110
391 -6 63 -4 75 8 75 11 0 17 -17 22 -65 10 -99 50 -243 97 -349 23 -53 45
-96 48 -96 10 0 75 25 89 33 25 16 13 53 -28 86 -22 18 -49 50 -60 72 -27 51
-68 210 -72 274 l-3 50 45 6 c25 3 61 7 80 7 l36 2 17 -72z m-539 -13 c-4 -8
-1 -15 5 -15 6 0 8 -7 4 -15 -15 -40 65 -242 142 -360 32 -50 98 -130 146
-180 47 -49 92 -101 99 -114 l12 -23 -33 18 c-48 27 -187 169 -240 244 -94
132 -127 208 -174 397 -14 57 -12 63 21 63 17 0 22 -4 18 -15z m138 -556 c118
-134 245 -229 422 -315 66 -32 145 -62 196 -73 47 -11 75 -20 62 -20 -43 -2
-217 47 -295 83 -93 42 -252 149 -320 215 -59 56 -132 151 -158 206 l-20 40
23 -30 c13 -16 53 -64 90 -106z m996 -406 c-10 -2 -26 -2 -35 0 -10 3 -2 5 17
5 19 0 27 -2 18 -5z m-230 -10 c-10 -2 -28 -2 -40 0 -13 2 -5 4 17 4 22 1 32
-1 23 -4z m145 0 c-13 -2 -33 -2 -45 0 -13 2 -3 4 22 4 25 0 35 -2 23 -4z"/>
<path d="M3041 2894 c0 -11 3 -14 6 -6 3 7 2 16 -1 19 -3 4 -6 -2 -5 -13z"/>
<path d="M2817 2409 c7 -7 15 -10 18 -7 3 3 -2 9 -12 12 -14 6 -15 5 -6 -5z"/>
<path d="M3170 2394 c0 -4 57 -34 65 -34 3 0 5 8 5 18 0 13 -9 17 -35 18 -19
0 -35 -1 -35 -2z"/>
<path d="M3398 2195 c3 -20 7 -23 18 -14 20 16 17 39 -5 39 -14 0 -17 -6 -13
-25z"/>
<path d="M2915 4126 c144 -51 229 -86 272 -112 17 -10 55 -33 85 -50 141 -83
298 -218 408 -352 35 -42 35 -42 73 -30 20 6 37 16 37 21 0 6 -46 56 -101 113
-110 111 -264 226 -403 300 -100 53 -274 117 -379 138 -122 26 -120 18 8 -28z"/>
<path d="M3940 3536 c0 -15 19 -56 41 -92 81 -127 162 -341 200 -524 27 -126
36 -427 19 -582 -15 -137 -51 -309 -84 -405 -14 -40 -23 -73 -20 -73 9 0 63
128 89 212 57 179 84 451 65 645 -31 324 -135 619 -292 822 l-18 24 0 -27z"/>
<path d="M3977 3107 c-3 -9 1 -18 10 -22 15 -5 15 -7 1 -22 -13 -12 -14 -22
-7 -40 17 -46 57 -267 64 -355 6 -84 8 -88 30 -88 13 0 31 -3 40 -7 16 -6 17
2 11 93 -11 155 -41 304 -79 396 -7 16 -14 22 -18 16 -9 -14 -28 -1 -38 25 -6
17 -9 18 -14 4z"/>
<path d="M976 2494 c-50 -13 -91 -26 -92 -27 0 -1 -4 -21 -8 -45 -8 -53 4 -59
77 -43 29 7 76 17 105 23 l52 10 0 54 c0 65 0 65 -134 28z"/>
<path d="M1320 1423 c0 -7 5 -15 10 -18 6 -4 8 -11 5 -16 -4 -5 -1 -9 4 -9 15
0 13 11 -4 34 -8 11 -15 15 -15 9z"/>
<path d="M1370 1365 c0 -8 4 -15 9 -15 5 0 7 -13 5 -29 -3 -16 -1 -32 5 -35 6
-4 8 5 7 21 -2 16 0 30 3 33 4 3 -1 13 -11 23 -15 14 -18 14 -18 2z"/>
<path d="M1410 1312 c0 -11 -3 -28 -7 -38 -5 -13 -3 -16 10 -11 12 5 17 1 17
-13 0 -15 7 -20 27 -20 33 0 26 -9 -10 -12 -14 -1 -23 -6 -21 -10 3 -5 12 -7
19 -6 8 2 13 0 12 -3 -1 -4 7 -17 18 -29 18 -20 20 -20 31 -5 15 20 36 11 27
-11 -5 -13 -7 -13 -14 -2 -5 7 -9 8 -9 2 0 -6 10 -19 22 -30 19 -17 21 -17 15
-2 -3 10 -2 20 3 23 6 4 10 2 10 -3 0 -5 15 -9 33 -10 28 0 29 1 10 9 -13 4
-23 11 -23 14 0 4 5 3 12 -1 7 -5 8 -3 4 5 -5 7 -15 10 -23 7 -8 -3 -12 -2 -9
3 8 12 -19 33 -29 23 -5 -4 -6 -2 -2 3 3 6 -23 39 -59 74 -51 50 -64 59 -64
43z m45 -32 c3 -6 -1 -7 -9 -4 -18 7 -21 14 -7 14 6 0 13 -4 16 -10z"/>
<path d="M1400 1239 c0 -5 5 -7 10 -4 6 3 10 8 10 11 0 2 -4 4 -10 4 -5 0 -10
-5 -10 -11z"/>
<path d="M1565 1110 c-3 -5 -2 -10 4 -10 5 0 13 5 16 10 3 6 2 10 -4 10 -5 0
-13 -4 -16 -10z"/>
<path d="M1597 1102 c-15 -17 -15 -18 3 -19 11 -1 22 2 25 8 4 5 -2 6 -12 2
-16 -6 -16 -5 -4 10 18 23 8 22 -12 -1z"/>
</g>
</svg>
